<?xml version="1.0" encoding="utf-8"?>
<svg width="800px" height="800px" viewBox="0 0 64 64" fill="none" xmlns="http://www.w3.org/2000/svg">
<path d="M46.02 49.701L46.03 49.6909C44.5132 49.0486 43.2189 47.9741 42.3085 46.6013C41.398 45.2285 40.9117 43.6182 40.91 41.9709C40.9112 40.3112 41.4054 38.6893 42.33 37.3109L42.36 37.2809C42.6035 36.8924 42.7084 36.4329 42.6576 35.9771C42.6067 35.5214 42.4032 35.0963 42.08 34.7709C41.5619 34.2624 41.0143 33.7849 40.44 33.3409C39.1566 32.3336 37.7355 31.5153 36.22 30.9109C37.6827 29.7548 38.8646 28.2823 39.6769 26.6041C40.4892 24.9259 40.9108 23.0854 40.91 21.2209C40.9076 17.9383 39.6025 14.7908 37.2813 12.4696C34.9602 10.1484 31.8126 8.84333 28.53 8.84094C25.2482 8.84623 22.1024 10.1523 19.7819 12.4728C17.4613 14.7934 16.1553 17.9392 16.15 21.2209C16.15 23.0878 16.5728 24.9303 17.3868 26.6103C18.2008 28.2903 19.3849 29.7641 20.85 30.921C17.5486 32.2589 14.7213 34.5512 12.7297 37.5047C10.7381 40.4582 9.6728 43.9387 9.67 47.5009V52.351C9.67158 52.8809 9.88281 53.3887 10.2575 53.7634C10.6323 54.1381 11.1401 54.3494 11.67 54.351H45.39C45.775 54.3521 46.1514 54.2371 46.47 54.0209C46.7521 53.8431 46.9845 53.5967 47.1454 53.3046C47.3063 53.0125 47.3904 52.6844 47.39 52.351V51.601C47.3904 51.1804 47.2582 50.7705 47.0123 50.4294C46.7663 50.0883 46.4191 49.8334 46.02 49.701Z" fill="#afe1ea"/>
<path d="M52.116 41.976L53.523 40.569C53.898 40.1939 54.1086 39.6853 54.1086 39.155C54.1086 38.6246 53.898 38.116 53.523 37.741C53.148 37.366 52.6393 37.1554 52.109 37.1554C51.5787 37.1554 51.0701 37.366 50.695 37.741L49.288 39.148L47.881 37.741C47.5059 37.366 46.9973 37.1554 46.467 37.1554C45.9367 37.1554 45.428 37.366 45.053 37.741C44.6781 38.116 44.4674 38.6246 44.4674 39.155C44.4674 39.6853 44.6781 40.1939 45.053 40.569L46.46 41.976L45.053 43.382C44.6781 43.757 44.4674 44.2657 44.4674 44.796C44.4674 45.3263 44.6781 45.8349 45.053 46.21C45.2385 46.396 45.4589 46.5435 45.7015 46.644C45.9442 46.7446 46.2043 46.7963 46.467 46.796C46.7297 46.7965 46.9899 46.7449 47.2326 46.6443C47.4753 46.5438 47.6957 46.3962 47.881 46.21L49.288 44.804L50.695 46.21C50.8804 46.3962 51.1007 46.5438 51.3434 46.6443C51.5861 46.7449 51.8463 46.7965 52.109 46.796C52.3717 46.7964 52.6319 46.7448 52.8745 46.6442C53.1172 46.5436 53.3376 46.3961 53.523 46.21C53.898 45.8349 54.1086 45.3263 54.1086 44.796C54.1086 44.2657 53.898 43.757 53.523 43.382L52.116 41.976Z" fill="#D02A2A"/>
</svg>